<svg xmlns="http://www.w3.org/2000/svg" version="1.1" xmlns:xlink="http://www.w3.org/1999/xlink" xmlns:svgjs="http://svgjs.com/svgjs" width="1920" height="1080" preserveAspectRatio="none" viewBox="0 0 1920 1080"><g mask="url(&quot;#SvgjsMask1048&quot;)" fill="none"><rect width="1920" height="1080" x="0" y="0" fill="rgba(28, 28, 34, 1)"></rect><path d="M1217 695L1216 1411" stroke-width="8" stroke="url(#SvgjsLinearGradient1049)" stroke-linecap="round" class="Up"></path><path d="M1028 668L1027 148" stroke-width="10" stroke="url(#SvgjsLinearGradient1049)" stroke-linecap="round" class="Up"></path><path d="M518 112L517 811" stroke-width="10" stroke="url(#SvgjsLinearGradient1050)" stroke-linecap="round" class="Down"></path><path d="M288 673L287 81" stroke-width="8" stroke="url(#SvgjsLinearGradient1049)" stroke-linecap="round" class="Up"></path><path d="M1833 67L1832 704" stroke-width="6" stroke="url(#SvgjsLinearGradient1050)" stroke-linecap="round" class="Down"></path><path d="M717 1076L716 489" stroke-width="8" stroke="url(#SvgjsLinearGradient1050)" stroke-linecap="round" class="Down"></path><path d="M132 712L131 -38" stroke-width="6" stroke="url(#SvgjsLinearGradient1049)" stroke-linecap="round" class="Up"></path><path d="M1621 452L1620 864" stroke-width="6" stroke="url(#SvgjsLinearGradient1050)" stroke-linecap="round" class="Down"></path><path d="M373 973L372 1714" stroke-width="6" stroke="url(#SvgjsLinearGradient1050)" stroke-linecap="round" class="Down"></path><path d="M1751 573L1750 1080" stroke-width="8" stroke="url(#SvgjsLinearGradient1049)" stroke-linecap="round" class="Up"></path><path d="M1014 38L1013 -287" stroke-width="8" stroke="url(#SvgjsLinearGradient1049)" stroke-linecap="round" class="Up"></path><path d="M1701 706L1700 1233" stroke-width="10" stroke="url(#SvgjsLinearGradient1050)" stroke-linecap="round" class="Down"></path><path d="M1173 397L1172 -246" stroke-width="10" stroke="url(#SvgjsLinearGradient1049)" stroke-linecap="round" class="Up"></path><path d="M497 484L496 -14" stroke-width="8" stroke="url(#SvgjsLinearGradient1049)" stroke-linecap="round" class="Up"></path><path d="M1546 97L1545 508" stroke-width="8" stroke="url(#SvgjsLinearGradient1050)" stroke-linecap="round" class="Down"></path><path d="M897 291L896 -40" stroke-width="6" stroke="url(#SvgjsLinearGradient1049)" stroke-linecap="round" class="Up"></path><path d="M873 617L872 1283" stroke-width="10" stroke="url(#SvgjsLinearGradient1050)" stroke-linecap="round" class="Down"></path><path d="M1802 907L1801 1263" stroke-width="6" stroke="url(#SvgjsLinearGradient1049)" stroke-linecap="round" class="Up"></path><path d="M218 273L217 -513" stroke-width="8" stroke="url(#SvgjsLinearGradient1050)" stroke-linecap="round" class="Down"></path><path d="M268 282L267 -156" stroke-width="10" stroke="url(#SvgjsLinearGradient1049)" stroke-linecap="round" class="Up"></path><path d="M620 813L619 14" stroke-width="6" stroke="url(#SvgjsLinearGradient1050)" stroke-linecap="round" class="Down"></path><path d="M78 828L77 33" stroke-width="10" stroke="url(#SvgjsLinearGradient1050)" stroke-linecap="round" class="Down"></path><path d="M1397 1047L1396 566" stroke-width="6" stroke="url(#SvgjsLinearGradient1049)" stroke-linecap="round" class="Up"></path><path d="M255 188L254 627" stroke-width="6" stroke="url(#SvgjsLinearGradient1049)" stroke-linecap="round" class="Up"></path><path d="M836 108L835 -550" stroke-width="8" stroke="url(#SvgjsLinearGradient1049)" stroke-linecap="round" class="Up"></path><path d="M742 185L741 -130" stroke-width="10" stroke="url(#SvgjsLinearGradient1050)" stroke-linecap="round" class="Down"></path><path d="M1049 51L1048 -558" stroke-width="6" stroke="url(#SvgjsLinearGradient1050)" stroke-linecap="round" class="Down"></path><path d="M243 933L242 531" stroke-width="8" stroke="url(#SvgjsLinearGradient1049)" stroke-linecap="round" class="Up"></path><path d="M207 563L206 969" stroke-width="6" stroke="url(#SvgjsLinearGradient1050)" stroke-linecap="round" class="Down"></path><path d="M354 506L353 953" stroke-width="10" stroke="url(#SvgjsLinearGradient1049)" stroke-linecap="round" class="Up"></path><path d="M83 71L82 -384" stroke-width="10" stroke="url(#SvgjsLinearGradient1049)" stroke-linecap="round" class="Up"></path><path d="M1771 496L1770 1063" stroke-width="8" stroke="url(#SvgjsLinearGradient1050)" stroke-linecap="round" class="Down"></path><path d="M1096 81L1095 684" stroke-width="6" stroke="url(#SvgjsLinearGradient1050)" stroke-linecap="round" class="Down"></path><path d="M969 337L968 977" stroke-width="8" stroke="url(#SvgjsLinearGradient1049)" stroke-linecap="round" class="Up"></path><path d="M481 523L480 868" stroke-width="6" stroke="url(#SvgjsLinearGradient1050)" stroke-linecap="round" class="Down"></path><path d="M1233 978L1232 269" stroke-width="8" stroke="url(#SvgjsLinearGradient1050)" stroke-linecap="round" class="Down"></path><path d="M343 780L342 1472" stroke-width="8" stroke="url(#SvgjsLinearGradient1049)" stroke-linecap="round" class="Up"></path><path d="M1153 918L1152 1235" stroke-width="10" stroke="url(#SvgjsLinearGradient1049)" stroke-linecap="round" class="Up"></path><path d="M1595 887L1594 1454" stroke-width="10" stroke="url(#SvgjsLinearGradient1050)" stroke-linecap="round" class="Down"></path><path d="M1289 918L1288 285" stroke-width="6" stroke="url(#SvgjsLinearGradient1049)" stroke-linecap="round" class="Up"></path><path d="M591 594L590 8" stroke-width="8" stroke="url(#SvgjsLinearGradient1050)" stroke-linecap="round" class="Down"></path><path d="M1653 475L1652 -324" stroke-width="10" stroke="url(#SvgjsLinearGradient1049)" stroke-linecap="round" class="Up"></path><path d="M1111 868L1110 275" stroke-width="8" stroke="url(#SvgjsLinearGradient1049)" stroke-linecap="round" class="Up"></path><path d="M1652 1066L1651 1630" stroke-width="10" stroke="url(#SvgjsLinearGradient1050)" stroke-linecap="round" class="Down"></path><path d="M63 1036L62 1345" stroke-width="8" stroke="url(#SvgjsLinearGradient1050)" stroke-linecap="round" class="Down"></path><path d="M1496 226L1495 655" stroke-width="8" stroke="url(#SvgjsLinearGradient1049)" stroke-linecap="round" class="Up"></path><path d="M704 452L703 143" stroke-width="8" stroke="url(#SvgjsLinearGradient1049)" stroke-linecap="round" class="Up"></path><path d="M685 371L684 -432" stroke-width="10" stroke="url(#SvgjsLinearGradient1049)" stroke-linecap="round" class="Up"></path></g><defs><mask id="SvgjsMask1048"><rect width="1920" height="1080" fill="#ffffff"></rect></mask><linearGradient x1="0%" y1="100%" x2="0%" y2="0%" id="SvgjsLinearGradient1049"><stop stop-color="rgba(49, 49, 58, 0)" offset="0"></stop><stop stop-color="rgba(49, 49, 58, 1)" offset="1"></stop></linearGradient><linearGradient x1="0%" y1="0%" x2="0%" y2="100%" id="SvgjsLinearGradient1050"><stop stop-color="rgba(49, 49, 58, 0)" offset="0"></stop><stop stop-color="rgba(49, 49, 58, 1)" offset="1"></stop></linearGradient></defs></svg>